<svg width="32" height="32" viewBox="0 0 32 32" fill="none" xmlns="http://www.w3.org/2000/svg">
<path d="M3.676 3.92356C3.99 2.72556 5.082 2.00156 6.23 2.00156C6.938 2.00156 7.582 2.26756 8.072 2.70156C8.61224 2.24839 9.29485 2 10 2C10.7051 2 11.3878 2.24839 11.928 2.70156C12.435 2.24953 13.0908 2.00029 13.77 2.00156C14.918 2.00156 16.01 2.72556 16.324 3.92356C16.624 5.06756 17 6.91156 17 9.00156C17 10.1687 16.7081 11.3173 16.1509 12.3428C15.5938 13.3684 14.7891 14.2383 13.81 14.8736C13.268 15.2276 13 15.6836 13 16.0736V16.8656C13 16.9109 13.0027 16.9549 13.008 16.9976C13.076 17.4936 13.322 19.3356 13.552 21.2456C13.778 23.1196 14 25.1636 14 26.0016C14 27.0624 13.5786 28.0798 12.8284 28.83C12.0783 29.5801 11.0609 30.0016 10 30.0016C8.93913 30.0016 7.92172 29.5801 7.17157 28.83C6.42143 28.0798 6 27.0624 6 26.0016C6 25.1616 6.222 23.1216 6.448 21.2456C6.678 19.3356 6.924 17.4936 6.992 16.9976L7 16.8656V16.0736C7 15.6836 6.732 15.2276 6.19 14.8736C5.21091 14.2383 4.40619 13.3684 3.84906 12.3428C3.29192 11.3173 3.00005 10.1687 3 9.00156C3 6.91156 3.376 5.06756 3.676 3.92356ZM13 10.0016C13 10.2668 12.8946 10.5211 12.7071 10.7087C12.5196 10.8962 12.2652 11.0016 12 11.0016C11.7348 11.0016 11.4804 10.8962 11.2929 10.7087C11.1054 10.5211 11 10.2668 11 10.0016V5.00156C11 4.73635 10.8946 4.48199 10.7071 4.29446C10.5196 4.10692 10.2652 4.00156 10 4.00156C9.73478 4.00156 9.48043 4.10692 9.29289 4.29446C9.10536 4.48199 9 4.73635 9 5.00156V10.0016C9 10.2668 8.89464 10.5211 8.70711 10.7087C8.51957 10.8962 8.26522 11.0016 8 11.0016C7.73478 11.0016 7.48043 10.8962 7.29289 10.7087C7.10536 10.5211 7 10.2668 7 10.0016V4.77156C7 4.56735 6.91888 4.37149 6.77447 4.22709C6.63007 4.08269 6.43422 4.00156 6.23 4.00156C5.898 4.00156 5.67 4.19956 5.61 4.43156C5.21586 5.92329 5.01092 7.45868 5 9.00156C4.9999 9.83564 5.20846 10.6565 5.60669 11.3894C6.00491 12.1222 6.58014 12.7438 7.28 13.1976C8.158 13.7676 9 14.7696 9 16.0736V16.8656C9 16.9989 8.99133 17.1322 8.974 17.2656C8.906 17.7576 8.662 19.5876 8.434 21.4856C8.202 23.4156 8 25.3136 8 26.0016C8 26.532 8.21071 27.0407 8.58579 27.4158C8.96086 27.7908 9.46957 28.0016 10 28.0016C10.5304 28.0016 11.0391 27.7908 11.4142 27.4158C11.7893 27.0407 12 26.532 12 26.0016C12 25.3136 11.8 23.4156 11.566 21.4836C11.338 19.5876 11.094 17.7576 11.026 17.2636C11.0108 17.1321 11.0021 16.9999 11 16.8676V16.0756C11 14.7716 11.842 13.7696 12.72 13.1996C13.4201 12.7456 13.9956 12.1237 14.3938 11.3905C14.792 10.6572 15.0004 9.83597 15 9.00156C15 7.13756 14.664 5.47356 14.39 4.43156C14.33 4.20156 14.1 4.00156 13.77 4.00156C13.5658 4.00156 13.3699 4.08269 13.2255 4.22709C13.0811 4.37149 13 4.56735 13 4.77156V10.0016ZM19 11.0016C19 8.61461 19.9482 6.32543 21.636 4.6376C23.3239 2.94977 25.6131 2.00156 28 2.00156C28.2652 2.00156 28.5196 2.10692 28.7071 2.29446C28.8946 2.48199 29 2.73635 29 3.00156V14.9476L29.038 15.3016C29.1971 16.7942 29.3498 18.2876 29.496 19.7816C29.742 22.2936 30 25.1096 30 26.0016C30 27.0624 29.5786 28.0798 28.8284 28.83C28.0783 29.5801 27.0609 30.0016 26 30.0016C24.9391 30.0016 23.9217 29.5801 23.1716 28.83C22.4214 28.0798 22 27.0624 22 26.0016C22 25.1096 22.258 22.2936 22.504 19.7816C22.63 18.5076 22.756 17.2876 22.85 16.3836L22.89 16.0016H21C20.4696 16.0016 19.9609 15.7908 19.5858 15.4158C19.2107 15.0407 19 14.532 19 14.0016V11.0016ZM24.994 15.1076L24.952 15.5116C24.7957 16.9998 24.6437 18.4885 24.496 19.9776C24.242 22.5516 24 25.2376 24 26.0016C24 26.532 24.2107 27.0407 24.5858 27.4158C24.9609 27.7908 25.4696 28.0016 26 28.0016C26.5304 28.0016 27.0391 27.7908 27.4142 27.4158C27.7893 27.0407 28 26.532 28 26.0016C28 25.2356 27.758 22.5516 27.504 19.9776C27.3573 18.4884 27.2053 16.9997 27.048 15.5116L27.006 15.1096L27 15.0016V4.07156C25.3337 4.31207 23.8099 5.14507 22.7079 6.41787C21.6059 7.69067 20.9996 9.31799 21 11.0016V14.0016H24C24.1402 14.0016 24.2789 14.0312 24.407 14.0883C24.535 14.1454 24.6497 14.2288 24.7434 14.3331C24.8371 14.4374 24.9079 14.5603 24.9511 14.6937C24.9942 14.8271 25.0089 14.9681 24.994 15.1076Z" fill="#006A71"/>
</svg>
